PathFileType	4	(X/Y/Z)	C:/Users/beibeiliu/ov580/test_trc\sequence.29_training_dense_right.trc
DataRate	CameraRate	NumFrames	NumMarkers	Units	OrigDataRate	OrigDataStartFrame	OrigNumFrames
120	120	10	19	mm	120	1	200
Frame#	Time	ThumbCMC			ThumbMCP			ThumbIP			ThumbTip			IndexMCP			IndexPIP			IndexTip			MiddleMCP			MiddlePIP			MiddleTip			RingMCP			RingPIP			RingTip			PinkyMCP			PinkyPIP			PinkyTip			BackHand1			BackHand2			BackHand3	
		X0	Y0	Z0	X1	Y1	Z1	X2	Y2	Z2	X3	Y3	Z3	X4	Y4	Z4	X5	Y5	Z5	X6	Y6	Z6	X7	Y7	Z7	X8	Y8	Z8	X9	Y9	Z9	X10	Y10	Z10	X11	Y11	Z11	X12	Y12	Z12	X13	Y13	Z13	X14	Y14	Z14	X15	Y15	Z15	X16	Y16	Z16	X17	Y17	Z17	X18	Y18	Z18	
0	0	105.832	12.1223	145.535	82.9446	-3.22007	126.878	72.8679	-12.2776	102.079	69.9434	-20.0238	80.2117	115.027	27.8731	72.7718	108.819	22.1817	44.0157	104.005	17.8606	22.7562	144.197	25.4957	66.2265	141.244	19.3574	39.1968	144.49	7.30654	11.0176	161.79	19.4409	70.5022	164.696	13.3262	43.3522	166.659	0.247787	17.0504	179.934	9.46697	83.1735	189.319	4.75564	61.3507	199.131	0.498103	40.3826	162.128	28.2047	120.656	161.596	32.3108	151.651	131.415	35.4113	136.326	
1	0.00833333	102.656	11.0804	140.682	86.5801	-4.19314	127.629	74.1101	-12.9518	100.424	66.4242	-21.4768	82.0313	114.543	26.1017	72.8476	106.443	22.8204	44.6666	107.176	15.2281	19.084	139.975	24.8176	67.3658	140.207	17.5531	35.4902	143.706	6.25202	9.20555	159.032	18.6662	68.3293	168.618	11.1903	46.64	164.994	-1.37679	18.1185	178.698	7.79046	84.1709	189.413	3.01794	60.7243	194.833	-2.00366	37.1703	160.94	26.7029	120.953	160.736	30.2472	151.408	129.969	35.4614	133.186	
2	0.0166667	101.359	10.415	146.572	86.802	-5.54646	125.613	72.6404	-13.97	101.772	69.815	-21.5459	81.0302	114.76	25.0844	72.8972	106.271	22.0562	49.0518	108.466	15.4241	22.7278	140.023	23.9417	63.0166	139.887	16.9625	36.6656	144.049	4.07855	8.92844	161.56	17.2506	70.5973	164.257	10.8018	47.5739	165.528	-2.94405	20.6046	179.119	8.64574	83.8348	189.044	1.57409	64.373	195.611	-2.28924	42.1316	161.47	26.4551	120.662	163.275	30.4228	149.482	131.494	35.0639	135.311	
3	0.025	99.8782	9.12642	144.616	83.878	-6.61691	129.182	73.3966	-15.3974	101.132	67.8447	-24.2518	80.9166	112.587	23.7604	75.8576	105.973	19.2063	45.9402	109.546	13.6802	22.1059	143.497	22.1188	66.2479	143.337	14.0513	36.9298	145.849	1.61046	12.2159	159.761	17.126	69.9317	165.178	8.71115	44.589	163.917	-4.54331	21.2201	178.589	7.17702	86.1541	187.419	0.977665	67.2561	197.06	-5.23031	39.808	158.417	27.4279	121.566	161.077	27.5272	153.293	127.238	33.0609	132.749	
4	0.0333333	98.8026	8.00388	143.911	85.1971	-8.33459	128.6	73.092	-16.8391	103.08	69.114	-25.9976	80.8051	113.83	22.1416	72.5442	106.176	18.6691	49.4826	109.953	11.3948	23.6165	138.633	20.7912	69.9612	140.94	11.3991	37.8298	142.649	1.09648	14.0624	158.812	13.9055	75.4645	162.056	6.65515	44.8217	163.946	-6.31563	20.0697	179.542	4.0668	89.4546	188.342	-1.01213	63.2557	196.522	-8.39159	40.5003	158.849	24.6434	125.374	163.932	27.4952	153.739	132.41	30.7222	137.187	
5	0.0416667	99.1348	6.71637	142.538	86.7965	-9.16496	127.623	74.666	-17.6347	107	69.3333	-25.8255	83.9083	110.601	20.6619	74.0643	109.523	16.3868	46.4966	102.899	10.6196	21.0117	140.922	19.5615	69.5103	143.325	12.2051	40.7483	141.979	0.821918	15.3366	157.757	13.6981	71.6417	165.232	6.77401	47.489	161.958	-5.85731	23.792	181.102	3.31141	85.948	185.978	-1.17437	66.3157	198.331	-8.70536	39.1379	162.734	22.3234	122.361	160.83	25.5626	150.548	131.822	29.849	132.896	
6	0.05	100.684	6.5152	143.345	82.1263	-8.08236	128.965	68.9422	-17.1633	104.213	64.9293	-26.4564	83.8432	111.273	21.1557	73.7125	103.581	17.4005	46.6752	107.56	10.3106	21.7173	137.657	20.527	68.193	140.229	12.3104	40.6058	141.771	-0.522017	13.6183	161.282	13.719	72.0478	165.584	6.21022	47.4399	164.792	-6.37265	23.5692	177.105	3.01416	88.097	188.824	-4.18445	64.7577	196.914	-10.209	39.1518	158.57	24.1228	125.052	157.788	25.7921	152.795	128.869	29.8238	133.578	
7	0.0583333	98.1328	7.2955	147.989	81.0681	-7.53155	128.991	68.6077	-16.3417	105.763	64.2041	-25.2214	82.0477	108.18	22.7015	73.951	105.557	16.7228	45.0206	103.981	10.3755	19.5719	138.386	19.466	66.8026	138.956	11.5066	39.4719	142.925	-2.80012	10.3665	160.505	12.8039	71.7016	165.104	5.37148	46.5871	160.642	-5.37565	23.7014	175.941	3.15076	89.6805	184.147	-2.57904	68.0746	196.592	-8.22863	42.4655	156.879	25.4072	120.893	157.326	26.9732	154.837	125.4	31.5276	136.769	
8	0.0666667	99.9589	6.63152	143.561	80.531	-8.31747	130.08	70.367	-16.6732	108.039	63.6653	-26.0378	85.4493	109.312	21.3837	73.2085	103.644	17.8787	47.2949	105.132	11.3281	24.5299	138.086	19.2601	68.6536	138.792	9.56055	38.1602	139.181	-1.01266	16.5976	156.082	13.5387	75.9987	160.749	5.93391	49.9471	160.872	-8.00272	21.7732	176.772	2.96449	88.626	182.535	-3.58677	65.8577	195.933	-10.2166	46.2181	160.332	24.5712	123.091	159.845	25.845	152.277	128.129	29.8949	138.153	
9	0.075	97.1764	8.78959	148.788	79.8905	-8.31002	130.019	68.4238	-16.0975	108.576	62.7597	-25.0605	84.2677	110.809	22.6276	73.433	101.879	18.5458	51.3281	103.146	10.2934	22.6007	134.37	21.2941	66.2376	137.682	11.0279	38.6201	137.598	0.292179	15.7609	156.64	14.1947	76.0335	159.369	6.72979	50.1974	159.221	-6.85403	23.9529	178.408	3.6508	89.0489	183.529	-2.18496	66.7972	191.66	-6.47108	43.7929	154.417	23.7861	125.7	159.055	26.1773	151.336	129.567	32.5394	138.986	
